<svg width="17" height="16" viewBox="0 0 17 16" fill="none" xmlns="http://www.w3.org/2000/svg">
<path d="M16.2423 9.47579C16.8023 9.47579 16.944 9.05047 16.6392 8.63224L14.9096 6.23627C14.6686 5.9031 14.3 5.91019 14.0661 6.23627L12.3364 8.63933C12.0387 9.04338 12.1734 9.47579 12.7263 9.47579H13.7541C13.1091 12.0206 10.8194 13.8849 8.06195 13.8849C4.80825 13.8849 2.19962 11.2763 2.19962 8.02261C2.19962 4.76892 4.80825 2.14611 8.06195 2.1532C9.95462 2.16029 11.6134 3.04637 12.6767 4.44284C12.9673 4.77601 13.3926 4.88234 13.74 4.62714C14.0661 4.39322 14.1298 3.93246 13.8109 3.54258C12.5065 1.8413 10.3516 0.692934 8.06195 0.692934C4.04977 0.692934 0.732269 4.01043 0.732269 8.02261C0.732269 12.0348 4.04977 15.3523 8.06195 15.3523C11.585 15.3523 14.5693 12.8075 15.2499 9.47579H16.2423ZM8.32423 12.127C8.67158 12.127 8.94803 11.8505 8.94803 11.5102V7.66818C8.94803 7.49805 8.89132 7.3421 8.77082 7.17906L7.08371 4.95322C6.82852 4.62006 6.45991 4.56335 6.1551 4.78309C5.86446 4.98867 5.83611 5.36436 6.06295 5.66918L7.70752 7.88084L7.70752 11.5102C7.70752 11.8505 7.98398 12.127 8.32423 12.127Z" fill="white"/>
</svg>
