<svg width="16" height="15" viewBox="0 0 16 15" fill="none" xmlns="http://www.w3.org/2000/svg">
<path d="M7.89018 12.6541L4.1667 14.8531C4.00221 14.9558 3.83025 14.9998 3.6508 14.9851C3.47136 14.9704 3.31434 14.9118 3.17976 14.8092C3.04518 14.7065 2.9405 14.5781 2.86573 14.4239C2.79096 14.2697 2.77601 14.0975 2.82087 13.9075L3.80781 9.7513L0.510523 6.95847C0.360986 6.82653 0.267675 6.67611 0.230589 6.50722C0.193504 6.33833 0.20457 6.17355 0.263787 6.01287C0.323601 5.85161 0.413324 5.71966 0.532953 5.61704C0.652583 5.51441 0.817074 5.44844 1.02643 5.41912L5.37795 5.04528L7.06025 1.13093C7.13501 0.955002 7.25106 0.823057 7.40837 0.735094C7.56568 0.647131 7.72628 0.603149 7.89018 0.603149C8.05467 0.603149 8.21527 0.647131 8.37198 0.735094C8.5287 0.823057 8.64474 0.955002 8.72011 1.13093L10.4024 5.04528L14.7539 5.41912C14.9633 5.44844 15.1278 5.51441 15.2474 5.61704C15.367 5.71966 15.4568 5.85161 15.5166 6.01287C15.5764 6.17414 15.5877 6.33921 15.5507 6.5081C15.5136 6.67699 15.42 6.82712 15.2698 6.95847L11.9725 9.7513L12.9595 13.9075C13.0043 14.0981 12.9894 14.2705 12.9146 14.4248C12.8399 14.579 12.7352 14.7071 12.6006 14.8092C12.466 14.9118 12.309 14.9704 12.1296 14.9851C11.9501 14.9998 11.7781 14.9558 11.6136 14.8531L7.89018 12.6541Z" fill="#FFE600"/>
</svg>
